<?xml version="1.0" encoding="UTF-8" standalone="no"?>
<!DOCTYPE svg PUBLIC "-//W3C//DTD SVG 1.1//EN" "http://www.w3.org/Graphics/SVG/1.1/DTD/svg11.dtd">
<svg width="100%" height="100%" viewBox="0 0 358 368" version="1.1" xmlns="http://www.w3.org/2000/svg" xmlns:xlink="http://www.w3.org/1999/xlink" xml:space="preserve" xmlns:serif="http://www.serif.com/" style="fill-rule:evenodd;clip-rule:evenodd;stroke-linecap:round;stroke-linejoin:round;stroke-miterlimit:1.5;">
    <g transform="matrix(1,0,0,1,-221.604022,-1358.059797)">
        <path d="M249.591,1681.874C250.339,1671.029 243.714,1542.661 322.595,1543.173C357.086,1543.397 367.452,1567.274 393.471,1533.844C400.182,1525.221 406.21,1516.083 412.868,1507.419C449.979,1459.129 475.403,1436.552 479.535,1431.868" style="fill:none;stroke:black;stroke-width:7px;"/>
        <path d="M225.104,1685.861L225.104,1722.299C226.227,1721.813 257.134,1707.603 287.699,1683.819" style="fill:none;stroke:black;stroke-width:7px;"/>
        <g transform="matrix(2.458754,-1.757359,1.757359,2.458754,-3177.03241,-1200.305244)">
            <path d="M489.585,1413.571L485.937,1413.571L485.265,1415.431L484.113,1415.431L487.137,1407.115L488.397,1407.115L491.409,1415.431L490.257,1415.431L489.585,1413.571ZM489.273,1412.683L487.761,1408.459L486.249,1412.683L489.273,1412.683Z" style="fill-rule:nonzero;"/>
            <rect x="492.729" y="1407.067" width="1.092" height="8.364" style="fill-rule:nonzero;"/>
            <path d="M506.793,1408.735C507.305,1408.735 507.761,1408.841 508.161,1409.053C508.561,1409.265 508.877,1409.583 509.109,1410.007C509.341,1410.431 509.457,1410.947 509.457,1411.555L509.457,1415.431L508.377,1415.431L508.377,1411.711C508.377,1411.055 508.215,1410.553 507.891,1410.205C507.567,1409.857 507.129,1409.683 506.577,1409.683C506.009,1409.683 505.557,1409.865 505.221,1410.229C504.885,1410.593 504.717,1411.119 504.717,1411.807L504.717,1415.431L503.637,1415.431L503.637,1411.711C503.637,1411.055 503.475,1410.553 503.151,1410.205C502.827,1409.857 502.389,1409.683 501.837,1409.683C501.269,1409.683 500.817,1409.865 500.481,1410.229C500.145,1410.593 499.977,1411.119 499.977,1411.807L499.977,1415.431L498.885,1415.431L498.885,1408.855L499.977,1408.855L499.977,1409.803C500.193,1409.459 500.483,1409.195 500.847,1409.011C501.211,1408.827 501.613,1408.735 502.053,1408.735C502.605,1408.735 503.093,1408.859 503.517,1409.107C503.941,1409.355 504.257,1409.719 504.465,1410.199C504.649,1409.735 504.953,1409.375 505.377,1409.119C505.801,1408.863 506.273,1408.735 506.793,1408.735Z" style="fill-rule:nonzero;"/>
            <path d="M517.245,1411.891C517.245,1412.099 517.233,1412.319 517.209,1412.551L511.953,1412.551C511.993,1413.199 512.215,1413.705 512.619,1414.069C513.023,1414.433 513.513,1414.615 514.089,1414.615C514.561,1414.615 514.955,1414.505 515.271,1414.285C515.587,1414.065 515.809,1413.771 515.937,1413.403L517.113,1413.403C516.937,1414.035 516.585,1414.549 516.057,1414.945C515.529,1415.341 514.873,1415.539 514.089,1415.539C513.465,1415.539 512.907,1415.399 512.415,1415.119C511.923,1414.839 511.537,1414.441 511.257,1413.925C510.977,1413.409 510.837,1412.811 510.837,1412.131C510.837,1411.451 510.973,1410.855 511.245,1410.343C511.517,1409.831 511.899,1409.437 512.391,1409.161C512.883,1408.885 513.449,1408.747 514.089,1408.747C514.713,1408.747 515.265,1408.883 515.745,1409.155C516.225,1409.427 516.595,1409.801 516.855,1410.277C517.115,1410.753 517.245,1411.291 517.245,1411.891ZM516.117,1411.663C516.117,1411.247 516.025,1410.889 515.841,1410.589C515.657,1410.289 515.407,1410.061 515.091,1409.905C514.775,1409.749 514.425,1409.671 514.041,1409.671C513.489,1409.671 513.019,1409.847 512.631,1410.199C512.243,1410.551 512.021,1411.039 511.965,1411.663L516.117,1411.663Z" style="fill-rule:nonzero;"/>
        </g>
    </g>
</svg>
