<?xml version="1.0" encoding="utf-8"?>
<!-- Generator: Adobe Illustrator 27.6.0, SVG Export Plug-In . SVG Version: 6.00 Build 0)  -->
<svg version="1.1" id="Layer_1" xmlns="http://www.w3.org/2000/svg" xmlns:xlink="http://www.w3.org/1999/xlink" x="0px" y="0px"
	 viewBox="0 0 1945 2500" style="enable-background:new 0 0 1945 2500;" xml:space="preserve">
<style type="text/css">
	.st0{fill:#606060;}
</style>
<path class="st0" d="M581.2,1545c-74.1-58.3-153.1-114.1-207.1-192.8C260.4,1213.4,173,1052.8,113.1,884
	C77,774.2,64.6,656.5,17.9,551c-48.7-76.7,8.4-160.4,92.4-184.8c37.4-7.2,103.1-42.5,23.7-17.2c-71.1,52.2-78-47.4-5.1-53.7
	c49.8-6.6,68.1-47.3,51.1-84c-53.5-34.9,129.6-73.1,37.5-125.2c-95.9-103.5,134.2-123.4,77.4-5.9c-13.6,90.4,160.8-16.6,120.3,87.8
	c41.1,50.1,154,11.4,151.2,81.7c59.9,4.1,80.5,54.5,136.7,58.4c58.3,26.3,164,47,183.8,112.7C829,466.6,695.2,326.3,688.7,453
	c17.5,187.2,13,380,81.5,558.3c32.4,107.9,110.9,192.9,181.8,276.9c67.9,82.3,159.8,140.3,253.5,189.1
	c82.2,38.7,170.8,64.4,260.3,80.6c36.3-27.8,100.4-131.1,157.1-87.5c2.7,49-112.4,102.3-5.4,96.9c62.9-19,106.5,48.6,158.2-12.4
	c47.7,56.5,198.2-36.1,164.3,79.4c-45.9,29.6-112.8,11.7-158.8,52.5c-75.8-37.9-136.1,33.8-220,24.8c-93.1,16.7-188,23.4-282.4,23.5
	c-155-12.2-313.2-17.4-460.6-71.3C735.2,1639.6,654.2,1592.3,581.2,1545L581.2,1545z M712.1,1601.7c81.1,35,160.4,72,249.3,83.2
	c141,19.6,286.6,49.8,428.1,22.3c-64-28.9-130.3,11.2-194.1-20.7c-76.5,16.4-158.6-4.2-236.4-14.4
	c-88.4-39.4-183.9-66.5-266.7-117.6c-103.5-37.8,53.5,48.5,81.5,55.5c64.7,36.7-71.2-18.8-90.3-34.1c-54.2-30.4-61.1-24-5.3,6.8
	C689.2,1589.2,700.3,1596.1,712.1,1601.7L712.1,1601.7z M557.8,1492.7c78.6,29.1-0.3-55.3-36.3-50.4c-16-27.7-61-45.2-29.2-60
	c-57.1,19.8-59.8-75.4-86.6-61.7c-60.4-19.1-23.5-86.7-95.5-128.2c-6.6-43.7-71.5-81.6-92.2-147.6c-9.1-33.8-73.4-130.7-33.9-40.5
	c33.6,86.8,92.7,161.3,141.8,235.6c38.2,70.7,83.3,144.7,152.8,188.8C502.1,1451.2,524.7,1485.6,557.8,1492.7L557.8,1492.7z
	 M331.4,1244.1C334.2,1232.2,345.8,1269.8,331.4,1244.1z M651.9,1527.6C669.3,1519.8,626.9,1517.7,651.9,1527.6z M694.6,1543.1
	C690.1,1521.6,675.1,1555.1,694.6,1543.1z M748,1565.4C773.4,1541.2,708.8,1550.1,748,1565.4z M839.5,1616.4
	C854.9,1593.6,790,1607.8,839.5,1616.4z M663.8,1493.9C703.2,1468.3,612.7,1493.5,663.8,1493.9z M703.8,1513.8
	C702.7,1500.4,689.5,1519.9,703.8,1513.8z M904,1638.8c32.2,20.3,188,44.5,90.4,8.3C978,1650.6,813.5,1600.6,904,1638.8z
	 M586.2,1391.3C583.1,1377.8,536.2,1376.3,586.2,1391.3z M679.4,1445.6C703.6,1428.7,629,1432.6,679.4,1445.6z M757.7,1493.7
	C792.6,1480.6,701.3,1480.5,757.7,1493.7z M548.2,1350c37.8,29,152.3,3.7,57.8-17.3c-43-22.9-139.9-38.6-73.8,13.8L548.2,1350z
	 M810.9,1510.3C826.6,1483.5,744.9,1495,810.9,1510.3z M731.1,1446.9c92.3,26.1-77.6-58.4-22.8-9.6l12.2,5.5L731.1,1446.9z
	 M891.1,1539.3C978.5,1540.2,812.1,1527.3,891.1,1539.3z M514.6,1299.4C511.2,1283.1,493.1,1300.8,514.6,1299.4z M1039,1622.3
	C1041.3,1592.9,1010.4,1644.2,1039,1622.3z M663.9,1390.8C658.5,1375.3,636.5,1390.1,663.9,1390.8z M522.9,1289.2
	C573.1,1286.2,454.1,1267.1,522.9,1289.2z M355.9,1181.3C349.7,1157.2,301.3,1138,355.9,1181.3z M794.3,1459.4
	C785.1,1449,789.9,1461.7,794.3,1459.4z M1067.1,1626.9C1066.2,1610.8,1052.2,1632.9,1067.1,1626.9z M770.1,1434.5
	C775.1,1413.8,727.3,1428.2,770.1,1434.5z M566.9,1305.7C604.2,1301.7,507,1280.4,566.9,1305.7z M910.7,1519.3
	C968.9,1496.3,853.9,1508.1,910.7,1519.3z M731.9,1397.9c67.1,8.6-79.8-45.7-14.8-4.9L731.9,1397.9z M965,1541.3
	c62.7-37.4,42,87.7,106.3,10.6c63.4-46.3-54.8,57.2,23.3,8.3c56.5-37.8,140,17.9,192.7,36.1c37.9-1.8,74.8,32.8,113.7,11.7
	c74.8-20.2-146.4-29.9-88.4-65.6c-68.5,19.9-119-23.7-152.7-67.6c-76.8-17.7-165.6-57-203.9-125c-15.7-25.5,22.6,3.6-13.5-38.1
	c-46.3-41.1-69.4-87.9-100.4-137.9c-37.1-19.8-41.5-78.1-45.2-1.9c0.3-48-44.8-80.4-55.8-67c-0.2-46.3,48.3-23.1,14.4-57.3
	c-7.3-47.9-31.3-97.9-38.6-152.1c-11.2-26.1-1.6-82-38.3-22.9c-13.4,62.5-4.4-76.7,16.4-30.8c27.3-46.8-9.8-41.3-11.3-34.8
	c17.8-39.5,11.3-95.5-4.7-74.2c9.5-41.9,15-154.1-14.2-134.2c17.7-43.8,33.5-200.4-43.3-140.7c-31.1,0.4-85,11.3-110.4,23.9
	c79.8,44-8.1,15.9-40.6,8.9c-4.2,40.7-36.4,23.2-76.7,23.5c64.3,7.9-31.3,65.7-68.1,43.3c-47.9,22.9,41.3,80,0.9,97.7
	c5,26.6-73.3-9.6-67.2,51.9c-46.5-19.6-6.4,72.9,16.9,41.6c79,21.4,55.6,70.1,57.6,116.5c-12.9,27-63.6-63.4-11.3-59.3
	c-41.3-67-45.6-24.3-79.9,6.9c-7.9,2.2,87.4,44.3,27.6,65.1c52.7,8.2,54.2,54.3,64.9,83.4c31.6,33,25.1-36.4,63,3.2
	c-24-35.3-127-99.5-44.1-78.9c-0.5-35.5-15-64.2,10.4-63.5c25.2-45.6-26.4,112.4,30.4,54.5c15.7-6.9,19.6-45.6,47.8,3.7
	c41,40.3,14.8,69.5-43,32.6c10.3,35.1,77.4,47.6,64.7,102.5c13.4,48.3,32,30.5,48.3,27.7c12.8,46.9,20,12.4,20.6-9.9
	c58.5,12.5,44.8,47.1,63.1,71.3c40.3,18.2-57.7-123.3,11.5-42.5c72.8,65.7,27.3,93.1-38,82.6c41.3-3.3,54.6,55.9,106.4,53.8
	c47.1,22.5,79.1,108.6-2.2,72.7c-28.2-25.4-128-56.8-46.5-8.4c75.2,34.9,135,55.7,207.6,99.5c51.9,37.1,74.4,79.5,94,87.9
	c-43.7,20.9-131.5-16.6-66.3-28.1c-40.7-7.4-86.5-28-47.5,22.7c33.2,27.7,117.5,24.8,132.7,27.9c-12.8,28.2-34.8,30.5,0.5,32.6
	C909.3,1526,961.4,1529.3,965,1541.3L965,1541.3z M884.4,1313.7c-24-25.1-30.2-72-4.3-31.2C893.4,1287.8,922.7,1359.2,884.4,1313.7z
	 M1146.9,1480.4C1161.8,1479.4,1147.3,1491.8,1146.9,1480.4z M846.5,1252.2C845.6,1214.3,855.2,1281.4,846.5,1252.2z M820.5,1217.1
	C790.3,1158.8,858.5,1233.6,820.5,1217.1z M504.3,998.9C522,994.2,513,1029.2,504.3,998.9z M755.9,1135.3
	C766.8,1094.4,768.7,1169.6,755.9,1135.3z M578.2,1011.7C565.6,989.1,604.3,1032.8,578.2,1011.7z M730.7,1060.5
	c-28.6-64,20.3-35,6.4,10.5L730.7,1060.5z M467.6,885.1c-12.8-21-33.9-82.6-27.1-101.4c6.1,30.6,65.1,131.8,28.9,41.9
	c-40-75.4,47.9,24.4,56.9,43.3c4.2,18.7-24.7-5.1-5.1,38.7C485.5,857.7,500.2,935.2,467.6,885.1z M386.3,829.1
	C389.7,780.2,404.9,862.6,386.3,829.1z M422.9,841.7C440.3,804.9,452.5,893.1,422.9,841.7z M334.9,773.6
	c-30.3-30.1-52.2-57.8,1.4-18.7c20.6,0.8-45.9-63,5-20.3C394.8,744.4,367.7,822.4,334.9,773.6L334.9,773.6z M381.1,772.5
	C398.7,755,390.5,789.6,381.1,772.5z M409.6,781.5C382.9,731.6,441.9,802.5,409.6,781.5z M353.1,727.5
	c-88-78.4,110.5,40.9,14.4,14.5L353.1,727.5z M605.2,874c-38.1-22.8-10.1-160.7,2.9-66.4c37-12-2.1,48.7,25.5,48.1
	C629.3,894,616.9,907.8,605.2,874z M698.4,929.1C702.2,887.6,706.3,957.6,698.4,929.1z M682.2,913.1
	C686.4,895.4,682.6,934,682.2,913.1z M370.3,701.8c-56.5-78,164.3,78.9,36.2,19.8C393.1,718.1,377,716.8,370.3,701.8z M549.9,797
	C544.5,731.3,561.8,807.9,549.9,797z M686.2,884.5C696.7,847.1,687,909.2,686.2,884.5z M379,672c33.6-7.2,139.2,59,42.2,18.9
	C410.4,679,387.4,684.4,379,672L379,672z M667.5,815.8c3.6-67.2,20.1-40.1,0.2,9.6L667.5,815.8L667.5,815.8z M404,648.6
	c13.7-20.1-36.4-90.8,7.2-25.3c18.8,15,54.5,25,23,31.3C483.7,698.3,422.1,666.5,404,648.6z M653.2,794.9
	C662.7,718.4,661.6,839.7,653.2,794.9z M375.4,578C385.8,573.5,380.9,591.9,375.4,578z M440.4,616.7
	C457.1,581.6,471.2,655.8,440.4,616.7z M623.8,718.7C623.6,705.2,627.2,738.3,623.8,718.7z M613.1,695.2
	C587.7,632.4,636.8,728.4,613.1,695.2z M597.5,654C593.3,628.1,612,686.6,597.5,654z M623,612.7c-17.5-30.8,22.1-135.6,26.5-70.6
	c-18.4,50.7-5.3,79,7.5,11C680.7,499.7,651.8,658.7,623,612.7L623,612.7z M649.1,456.7C656.7,447.4,650.8,468,649.1,456.7z
	 M605.4,1316.9C595.1,1307.8,606.8,1322.6,605.4,1316.9z M695.4,1362.3c50,12.9,49.8-7.8,4.6-13.9c-24.3-22.6-101-46.6-32.3-2.8
	C672.1,1357.2,686.5,1356.9,695.4,1362.3z M517.8,1244.4c27.5,20.6,103.8,58.2,39.2,7.9c21.8-25.3-41.6-38.8-20.6-55.7
	c-53.5-32.8-42.2-29.8-4.7-28.8c-64.3-28.8,9.3-26.6,5.8-41.3c-24.8-4.9-123.2-43.7-65.3,3.2c-58.8-30-14,11.2-31.8,6.9
	c-60.2-16.4,53.6,45.8-9.5,30.4c34.5,27.3,92.9,70.1,14.6,28.9C435.2,1210.6,501.5,1233.1,517.8,1244.4L517.8,1244.4z M611.8,1298.4
	C726.2,1335.2,555.7,1253.4,611.8,1298.4z M1093.2,1590.1C1094.7,1567.4,1077.6,1609.4,1093.2,1590.1z M1142.7,1610.9
	c26.4-25.5,1.1,40.7,43.7-6.3c0.4-33.6-1.3-53.5-49-12.6C1124.3,1599.3,1118.4,1630.2,1142.7,1610.9L1142.7,1610.9z M357.3,1117.6
	C349.2,1085.8,300.5,1085.9,357.3,1117.6z M410.1,1152.2C390.5,1119.7,340.1,1122.8,410.1,1152.2z M710.7,1333.5
	c29.4,26.1,134.8,19.1,35.6,3.2C731.7,1315,653.1,1320.2,710.7,1333.5z M1123.9,1588.7C1169.1,1550.8,1080.1,1605.6,1123.9,1588.7z
	 M1217.9,1653.3C1218.1,1641.1,1198.4,1658.6,1217.9,1653.3z M1218,1636.2C1268,1583.3,1169.6,1639.3,1218,1636.2z M227.3,1008.8
	c-42.6-60.8-26.5-88.1-67.6-137.8c-7.8-38-70.5-124.2-32.4-32.9C162.1,891.5,172.5,974.1,227.3,1008.8L227.3,1008.8z M1202.3,1619.4
	C1294.4,1559.9,1164.5,1593.5,1202.3,1619.4z M1272.6,1646.9C1318.7,1607.3,1243.4,1638.6,1272.6,1646.9z M341.6,1050.4
	C354.8,1030.7,307.5,1047.8,341.6,1050.4z M1257.9,1628.1c44.6-28.8-10.3-24.3-8.1,2.6L1257.9,1628.1z M652.4,1246.5
	C650.8,1227,628.8,1248.1,652.4,1246.5z M689.8,1268C677.9,1243.9,671.5,1271.7,689.8,1268z M1329.5,1647.5
	c57.2-41.2-34.6-7.9-12,7.8L1329.5,1647.5z M1307.6,1637C1354.2,1598,1258.4,1654.2,1307.6,1637z M1419.4,1711.4
	C1450.7,1690.5,1381.5,1704.7,1419.4,1711.4z M370.3,1036.2c41.9,9.4,167.5,103.2,93.4,6.5c-38-11.2-15.2-104-53.9-87.6
	c26,43.4,21.3,61.8-33.2,34.5c-68.5-33.5-38.5,16.5-25.1,30.4C333.2,1024.2,375.7,1035.9,370.3,1036.2L370.3,1036.2z M179.4,885.4
	c7.5-31.1-69.1-170.7-36.2-70C155.1,836.5,153.8,876.5,179.4,885.4z M529.8,1101.5C508.2,1083.5,528.8,1098.9,529.8,1101.5z
	 M582.9,1113.9C582.9,1081,524.2,1100.5,582.9,1113.9z M1043.5,1404.2C1034.7,1381.7,1008.7,1403.7,1043.5,1404.2z M1065.6,1420.3
	C1062.3,1407.7,1052.8,1422.7,1065.6,1420.3z M1248.1,1535.3C1265.6,1522.3,1226.2,1533.6,1248.1,1535.3z M274.7,909.8
	C324.9,890.3,220.9,895.9,274.7,909.8z M1002.9,1368.5C1002.3,1336,970.9,1376.6,1002.9,1368.5z M254.9,863.5
	C287.1,852.6,225,856.4,254.9,863.5z M348.5,908.9C347.9,898.2,338.6,912.9,348.5,908.9z M1490.4,1609.1c41.5-8.4,136,21.1,151.3-11
	c-50.4-1.2-174.2-35.6-180.1,8.1l11,1.7L1490.4,1609.1L1490.4,1609.1z M378.2,916.4C379,883.4,352.5,915.1,378.2,916.4z
	 M132.1,745.6C120.9,682.9,89.6,736.1,132.1,745.6z M190.8,760.4C191.5,740.2,137.1,742.2,190.8,760.4z M224.3,776.9
	C214.6,769,216.8,786.7,224.3,776.9z M435.4,912.3C445.4,903.1,411.9,905.5,435.4,912.3z M202,739.7
	C196.3,692.3,134,732.6,202,739.7z M81.6,661.6C79.9,639.7,69.9,669.8,81.6,661.6z M99.6,648.1C96.6,622.2,84.2,651.4,99.6,648.1z
	 M198.5,707.1c41.8-16.4-76.2-34-8.5-3.1L198.5,707.1z M1522.2,1524.8C1548.9,1500.2,1488.2,1517.2,1522.2,1524.8z M1682.1,1607.6
	C1692.8,1576,1655.1,1611.8,1682.1,1607.6z M208.6,655.3C213,624.6,175.4,661.4,208.6,655.3z M67.8,561
	c-7.6-43.3-6.5-119.4,65.8-93.7c-96.5,19.2,66.8,120,46.2,40.4c40.6,2,79.4-24,58.1,15.4c80-8.8,135.4-78.1,212.6-68.4
	c60.2-8,125.9-14,190.8-38.3c53.3-3.8,104.6-61.2,75.4-95.2c-72.7-6.2-148.8,2.9-229.1,18.9c-89,18.5-169.9,53.6-259.7,68.8
	c-87.6,11.8,17.6,32.4-7.5,37c-45.7,15.8,54.5,26.5-5.9,43.3c-37.3-7.1-76.2-19.9-60.2-59.3C70.4,440.8-3.4,475.6,62.9,561L67.8,561
	L67.8,561z M270,458.1c19.6-72.4,105.3,59.6,32.2,9.6C293.5,461.1,279.1,455.8,270,458.1z M273.8,422.9
	C302.2,401.8,288.9,434.8,273.8,422.9z M309.8,423.5c2.6-33.3,82.5,17.6,13.2,12L309.8,423.5L309.8,423.5z M359.1,403.7
	C377.1,382.6,364.3,422.4,359.1,403.7z M371.7,395.3c30-36,169.8-23,67.5-3.5C411.8,371.1,390.8,403.9,371.7,395.3L371.7,395.3z
	 M554.2,367.1C549.6,268.7,644.8,402.1,554.2,367.1z M605.9,366.8c18.9-49.6,73.5-19.9,8.8-10C616.1,362.2,612.8,382.5,605.9,366.8z
	 M188.2,629.9C244.7,595.2,128.1,599.8,188.2,629.9z M230,641.4C249.8,620.4,186.9,632.9,230,641.4z M106.8,554.1
	C139.1,529.2,68.5,544.6,106.8,554.1z M1776.5,1598.6C1777.4,1569.8,1751.8,1611.6,1776.5,1598.6z M1606.8,1482.8
	C1611.6,1449.7,1585,1485.7,1606.8,1482.8z M1823.1,1609.8c45.2,0.2,136.9-14.1,38.6-14C1846.3,1598.2,1771.8,1597.7,1823.1,1609.8z
	 M266.8,621.1c36.6-2.5,57.2-40.3-7.1-38.2c-99.6-10.3,87.9,34.1-12.8,21.4C233.4,613.3,265.9,623.6,266.8,621.1z M298.9,637.4
	C295.1,614,287.6,649.9,298.9,637.4z M337.1,535.6C353,515.9,315.2,530.3,337.1,535.6z M215.5,332.3
	c65.3-22.2,154.5-47.1,185.3,10.9c-31.4-37.7-12.7-74.9,16.9-19.7c41.9,55.8,62.8-25.4,35.6-44.1c31.1,38.6,66.3,56.8,20.8,2.4
	c49.5-59.6-99.1,7.8-132.9,7.1C325,296.3,173.4,327.7,215.5,332.3L215.5,332.3z M253.8,259.1c37.2-28.1,128.7,16.7,70-27.9
	C318,226.1,195.2,265.1,253.8,259.1z M389.5,264.7c43.5,1.1-18.8-58.5,33.1-31.5c-8.5-27.8-60.4-33-85.8-44.2
	C322.4,214.5,366,265.1,389.5,264.7z M277.6,141.5C292.6,121.1,251.1,151.9,277.6,141.5z M333,154.8c70.2-9.3-17.9-30.2-14.2-0.7
	L333,154.8L333,154.8z M229.5,73.8c-49.4-64.5,93,10.8,42.7-56.7C229.9-16.5,189.3,55,229.5,73.8L229.5,73.8z M863.7,415.4
	c22.7-40.2-93.5-54.2-15.2-14.2C855.6,403.6,854,418.2,863.7,415.4L863.7,415.4z M403.5,1910.8c-5,19.8-8.1,53-9.3,99.7
	c0,9.2-4.1,13.8-12.4,13.8c-8.3,0-14-4-17.3-12c-8.9-21.6-17.2-36.6-25.3-45.2c-9.4-10-22-16.1-37.6-18.2c-16.8-2.7-58.8-4-125.8-4
	c-15.3,0-25.4,1.6-30.1,4.9c-3,2.1-4.4,6.5-4.4,13.3v200.6c0,6.8,4.3,10,12.8,9.7c26.3-0.3,64.4-2.1,114.3-5.3
	c9.8-1.2,16.3-4.4,19.7-9.5c3.4-5.2,6.7-18.5,10-40.1c2.1-11.8,9-16.4,20.8-13.7c10,2.1,14.3,6.6,12.9,13.7
	c-8.3,40.2-11,92.4-8,156.8c0.3,7.7-4.6,11.8-14.6,12.4c-8.3,0.9-13.4-3.5-15.5-13.3c-7.7-36.9-21.9-56.6-42.7-59.1
	c-20.8-2.5-54.7-3.8-101.7-3.8c-5.3,0-8,1.9-8,5.8v199.3c0,14.8,5.4,24.8,16.4,30.1c8.6,4.4,27,8.4,55.4,12
	c14.5,1.5,20.8,7.8,19.1,19c-1.8,9.7-14.8,13.6-39,11.5c-70-5.6-127.7-5.3-173.2,0.9c-12.7,1.7-19-3.4-19-15.5
	c0-7.7,6.3-12.1,19-13.3c28.9-3.3,43.4-28.7,43.4-76.2V2006c0-19.5-3.5-34.4-10.4-44.9c-7-10.5-19.9-20-38.7-28.6
	c-11.8-5.3-16.2-12.5-13.3-21.7c1.5-5.6,3.8-8.7,7.1-9.3c3-0.9,10.8-0.3,23.5,1.8c18.6,2.9,62.5,4.4,131.6,4.4
	c81.5,0,151.9-1.8,211.3-5.3c19.8-1.2,29.7,0.4,29.7,4.9C404,1908.4,403.8,1909.6,403.5,1910.8L403.5,1910.8z M690.7,2473.1
	c0,11.8-6.6,17-19.9,15.5c-40.7-3.8-91.2-3.3-151.5,1.8c-12.1,1.2-19.6,0.9-22.4-0.9c-2.8-1.8-4.2-6.6-4.2-14.6
	c0-7.1,8-13,24.1-17.9c16.1-4.9,24.1-19.4,24.1-43.6v-400.9c0-23.9-3.5-41.5-10.4-52.7c-7-11.2-19.1-19.9-36.5-26.1
	c-9.2-3.3-13.8-7.8-13.8-13.8c0-8.9,6.6-15.5,19.9-19.9c20.1-6.5,40.9-16.5,62.5-30.1c17.7-10.6,28.9-15.9,33.7-15.9
	c10.9,0,16.4,7.5,16.4,22.6c0-1.2-0.6,13.6-1.8,44.3c-0.9,29.2-1.2,58-0.9,86.4l1.7,395.5c0,18,4.4,31.1,13.3,39.2
	c8.9,8.1,24.1,13.5,45.6,16.2C684.1,2459.4,690.7,2464.5,690.7,2473.1L690.7,2473.1z M1091.4,2446.9c0,6.2-11.3,15.6-33.9,28.1
	c-22.6,12.6-40.7,18.8-54.3,18.8c-11.5,0-21.7-5.6-30.6-16.8c-8.9-11.2-15.1-16.8-18.6-16.8c-2.7,0-16.7,6.1-42.1,18.1
	c-25.4,12.1-50.9,18.2-76.6,18.2c-24.2,0-44.4-7.1-60.7-21.3c-17.7-15.7-26.6-36.9-26.6-63.8c0-51.1,58.5-87.7,175.4-109.8
	c20.1-3.8,30.3-12,30.5-24.4l0.9-28.4c1.8-48.4-19.6-72.6-64.2-72.6c-12.7,0-24.7,11.4-36.1,34.1c-11.3,22.8-27.7,35-48.9,36.8
	c-24.2,2.3-36.3-7.8-36.3-30.6c0-14.2,18-30.7,54-49.6c37.8-19.8,74.1-29.7,109-29.7c59.9,0,89.6,28.5,89,85.5l-1.8,182.5
	c-0.3,19.2,7.8,28.8,24.4,28.8c3.3,0,9.5-0.7,18.6-2.2c9.2-1.5,14.5-2.2,16-2.2C1087.1,2429.6,1091.4,2435.4,1091.4,2446.9
	L1091.4,2446.9z M954.9,2346c0.3-7.4-1.4-12.3-5.1-14.6c-3.7-2.4-9.5-2.8-17.5-1.4c-71.2,12.7-106.8,35.9-106.8,69.5
	c0,34,18.5,50.9,55.4,50.9c14.8,0,30-2.8,45.6-8.4c18.3-6.5,27.5-14.3,27.5-23.5L954.9,2346L954.9,2346z M1420.7,2396
	c0,31.3-12.1,56.2-36.1,74.6c-24.1,18.5-56.9,27.7-98.6,27.7c-27.7,0-55.5-2.9-83.3-8.9c-23.9-5.3-37.8-10.2-41.6-14.6
	c-2.4-4.2-3.5-24.4-3.5-60.7c0-15.7,3.5-23.8,10.6-24.4c7.1-0.9,13.1,3,18.2,11.5c22.1,38.7,57.9,58,107.2,58
	c41.6,0,62.4-14.5,62.4-43.4c0-12.7-4.7-23.3-14.2-31.9c-10.3-9.7-30.4-21.1-60.2-34.1c-43.1-19.2-71.9-36-86.4-50.5
	c-15.7-15.3-23.5-36-23.5-62c0-31.9,12.3-56.7,36.8-74.4c22.7-17.1,53.2-25.7,91.2-25.7c23.9,0,45.8,1.9,65.6,5.8
	c21.3,3.8,32.3,8.6,33.2,14.2c2.3,16.5,7.2,40.4,14.6,71.8c0.9,3.8-3.3,6.9-12.4,9.3c-9.8,2.1-16.2,0.4-19.5-4.9
	c-23.3-38.1-52.8-57.1-88.6-57.1c-40.5,0-60.7,13-60.7,39c0,14.5,5.5,26,16.4,34.5c9.8,7.4,32.6,18.9,68.7,34.6
	c37.8,16.2,63.5,30.9,77.1,43.8C1411.8,2345,1420.7,2367.6,1420.7,2396L1420.7,2396z M1941.8,2473.5c0,10.3-7,15.8-20.8,16.4
	c-20.7,0.3-47.7,1.8-81.1,4.4c-16.5,3.3-28.4,1.2-35.4-6.2c-46.7-50.2-86.2-102.8-118.7-157.7c-2.6-4.7-6-7.1-10.2-7.1
	c-5,0-13.7,4.4-26.1,13.3c-13.9,7.7-20.8,18.6-20.8,32.7c0,10.1,0.3,24.5,0.9,43.4c0.6,18.9,5.3,31.3,14.2,37.2
	c6.2,4.2,20.6,7.4,43,9.8c13.9,1.8,20.8,6.9,20.8,15.5c0,6.8-1.1,11-3.3,12.6c-2.2,1.6-8.1,2-17.5,1.1c-29.5-2.6-79.4-1.2-149.7,4.4
	c-17.7,1.5-27.3-0.7-28.8-6.6c-0.6-2.1-0.9-5-0.9-8.9c0-9.1,9-16.1,27-20.8c16.2-4.2,24.4-23.2,24.4-57.2v-387.1
	c0-24.2-2.4-41-7.1-50.5c-6.5-12.1-20.1-21.6-40.8-28.4c-9.7-3.2-14.6-7.8-14.6-13.7c0-8.6,7-15.2,20.8-19.9
	c22.3-7.5,43.6-17.7,63.3-30.6c16.3-10.6,26.3-15.9,30.1-15.9c12.1,0,18.2,7.7,18.2,23c0-2.1-0.2,12.6-0.5,43.8
	c-0.3,28.9-0.5,57.9-0.4,86.8l0.9,277.3c0,7.7,2.1,11.5,6.2,11.5c4.4,0,11.2-3.8,20.4-11.5c24.5-19.2,54.6-44.3,90.3-75.3
	c7.1-7.4,10.6-13.3,10.6-17.7c0-8-12-13.6-35.9-16.8c-10.3-1.2-15.2-7-14.6-17.3c0.9-10.3,6.1-14.8,15.5-13.3
	c21.3,3,52.3,4.6,93,4.9c28.4,0.3,56.6,0.4,84.6,0.4c9.1,0.3,13.7,5.8,13.7,16.4c0,10-7.2,15.5-21.7,16.4
	c-22.8,0.9-44.2,6-64.2,15.5c-28.1,12.7-58,35-89.9,66.9c-2.3,1.8-3.5,4-3.5,6.6c0,4.1,5,14,15.1,29.7
	c36.9,56.1,71.8,98.5,104.5,127.1c21,18,40.6,27,58.9,27c13.6,0,22,1,25.2,2.9C1940.1,2460.1,1941.8,2465.2,1941.8,2473.5
	L1941.8,2473.5z"/>
</svg>
