<?xml version="1.0" encoding="utf-8"?>
<!-- Generator: Adobe Illustrator 27.6.0, SVG Export Plug-In . SVG Version: 6.00 Build 0)  -->
<svg version="1.1" id="Layer_1" xmlns="http://www.w3.org/2000/svg" xmlns:xlink="http://www.w3.org/1999/xlink" x="0px" y="0px"
	 viewBox="0 0 1512 684" style="enable-background:new 0 0 1512 684;" xml:space="preserve">
<style type="text/css">
	.st0{opacity:0.6;fill:ffffff;stroke:url(#SVGID_1_);stroke-width:1.422;enable-background:new    ;}
</style>
<radialGradient id="SVGID_1_" cx="511.4692" cy="-0.5972" r="1" gradientTransform="matrix(0 -591.533 857.267 0 1278.9573 303234.375)" gradientUnits="userSpaceOnUse">
	<stop  offset="0" style="stop-color:#ffffff"/>
	<stop  offset="1" style="stop-color:#ffffff;stop-opacity:0"/>
</radialGradient>
<path class="st0" d="M1425.2-141v824.5 M1370.4-141v824.5 M1315.7-141v824.5 M1261-141v824.5 M1206.2-141v824.5 M1151.5-141v824.5
	 M1096.8-141v824.5 M1042.1-141v824.5 M987.3-141v824.5 M932.6-141v824.5 M877.9-141v824.5 M823.1-141v824.5 M768.4-141v824.5
	 M713.7-141v824.5 M658.9-141v824.5 M604.2-141v824.5 M549.5-141v824.5 M494.8-141v824.5 M440-141v824.5 M385.3-141v824.5
	 M330.6-141v824.5 M275.8-141v824.5 M221.1-141v824.5 M166.4-141v824.5 M111.6-141v824.5 M56.9-141v824.5 M1533.2,627.3H0.8
	 M1533.2,571.9H0.8 M1533.2,517.8H0.8 M1533.2,462.4H0.8 M1533.2,408.4H0.8 M1533.2,352.9H0.8 M1533.2,298.9H0.8 M1533.2,243.5H0.8
	 M1533.2,189.5H0.8 M1533.2,134H0.8 M1533.2,80H0.8 M1533.2,24.6H0.8 M1533.2-29.5H0.8 M1533.2-84.9H0.8"/>
</svg>
