<?xml version="1.0" encoding="UTF-8"?>
<svg id="uuid-59f7c3ad-c9ff-40db-adfd-24369e7215cb" data-name="Layer 2" xmlns="http://www.w3.org/2000/svg" viewBox="0 0 107.99 107.99">
  <g id="uuid-c026e36b-1cf5-4aa3-8fae-f97a99c5cef4" data-name="Layer 1">
    <g>
      <circle cx="54" cy="54" r="54" style="fill: #c7d9e5;"/>
      <g>
        <path d="m41,61.44c0,4.88,2.33,7.21,6.98,7.21,2.56,0,6.28-.93,10.46-2.79,4.42-1.86,6.51-2.79,6.74-2.79,1.4,0,3.26,2.09,5.58,6.28s3.49,7.44,3.49,9.3c0,2.79-3.02,5.12-8.84,6.51-5.81,1.4-11.86,2.33-17.44,2.33s-10.46-.47-14.19-1.4-6.98-2.09-9.3-3.49-4.42-3.02-6.28-5.12c-1.86-2.09-3.26-3.95-4.19-5.81s-1.63-3.95-2.09-6.05c-.7-3.26-1.16-6.74-1.16-10.23,0-13.49,3.49-22.79,10.7-27.91,3.49-2.56,7.44-4.42,11.63-5.35,4.42-1.16,9.53-1.63,15.35-1.63,18.84,0,28.14,6.51,28.14,19.77,0,13.95-10.46,20.93-31.63,20.93l-3.95.23h0Zm-.23-16.28v7.44c2.09,0,3.95-.93,5.35-2.56,1.4-1.63,2.09-3.72,2.09-6.28,0-4.42-1.16-6.74-3.49-6.74-2.56,0-3.95,2.79-3.95,8.14Z" style="fill: #131a24;"/>
        <path d="m95.82,59c1.63,4.11,1.88,7.26.53,9.54-1.35,2.28-3.6,4.18-7.27,5.63-3.68,1.46-6.83,1.71-9.16.88-2.55-.74-4.52-3.21-6.15-7.32-1.63-4.11-1.79-7.04-.45-9.33,1.22-1.98,3.77-3.75,7.44-5.2,3.68-1.46,6.53-1.84,8.99-1.31,2.33.83,4.44,2.99,6.07,7.1h0Z" style="fill: #131a24;"/>
      </g>
    </g>
  </g>
</svg>