<svg id="a"
    xmlns="http://www.w3.org/2000/svg" viewBox="0 0 183.97 72.3">
    <defs>
        <style>.b{fill:#007bff;}</style>
    </defs>
    <path class="b" d="m20.3,22.8v14c0,.3-.9.6-2.7.8s-3.7.3-5.6.3-3.2-.1-3.8-.3-.9-.5-.9-.9V13.1c0-.6.9-1.3,2.7-2s3.7-1.1,5.8-1.1,3.3.6,3.5,1.7l.5,2.2h.3c.5-1.2,1.5-2.2,3.2-3.1s3.4-1.3,5.1-1.3,2.9.3,3.6.8,1,1.2,1,2.1-.1,1.9-.2,3.2c-.1,1.3-.4,2.7-.9,4.3s-1.1,2.3-1.9,2.3c-.3,0-1.3-.2-3-.7s-3.1-.7-4.2-.7-1.8.2-2.1.5-.4.9-.4,1.5h0Z"/>
    <path class="b" d="m47.2,13.5v23.7c0,.3-.9.6-2.8.8s-3.7.3-5.7.3-3.2-.1-3.7-.3c-.6-.2-.8-.5-.8-.9V14.3c0-.7.9-1.4,2.7-2.1s3.8-1,5.9-1c3,0,4.5.8,4.4,2.3h0Zm-1.3-8.8c0,1.9-.4,3.2-1.3,3.9-.9.7-2.1,1.1-3.8,1.1s-3-.4-3.8-1.1c-.9-.7-1.3-2-1.3-3.9s.4-3.1,1.3-3.8c.8-.6,2.1-.9,3.8-.9s2.9.3,3.8.9c.8.7,1.3,1.9,1.3,3.8h0Z"/>
    <path class="b" d="m105.4,23.4c0-2.4-.3-4.5-.8-6.2s-1.2-3.1-2.1-4.1-2-1.8-3.4-2.4c-1.4-.6-2.8-.9-4.1-1.1s-3-.3-4.8-.3c-4.4,0-8,1-10.8,3.1-5.1,3.8-4,10.5-3.9,16,0,.3,0,.5-.2.7s-.5.2-.8.3c-4.9.4-13.3,1.4-13.3-5.7,0-2.2.2-3.6.7-4.4s1.2-1.1,2.2-1.1c.9,0,2.1.3,3.4.8s2.1.8,2.3.8c.8,0,1.4-.8,1.9-2.3.5-1.6.7-3,.7-4.4s-.7-2.4-2.2-2.9c-1.5-.6-4-.9-7.8-.9-2.2,0-4.4.5-6.6,1.5-1.4.6-2.6,1.5-3.7,2.4s-2,2.4-2.7,4.2c-.7,1.8-1.1,3.9-1.1,6.2,0,3.7.7,6.7,2,9,.6,1,1.3,1.8,2.2,2.5s1.7,1.2,2.5,1.6c1.8.8,4.3,1.2,7.3,1.2s27.8.6,29.6-.1c3.7-.3,6.8-1.5,9.2-3.6,2.9-2.3,4.3-5.9,4.3-10.8h0Zm-16.9-4.6c.2-1.2.5-1.9.7-2.1s.6-.4,1-.4.7.2,1,.6c.2.3.3.7.5,1.2.1.5.2,1.2.3,2.2s.1,2.3.1,4-.1,3.2-.3,4.3-.4,1.8-.7,2.1-.6.3-1,.3-.7-.1-1-.3c-.2-.2-.5-.9-.7-2.1-.2-1.1-.3-2.8-.3-4.9s.2-3.8.4-4.9h0Z"/>
    <path class="b" d="m56.9,57.4c0-2.4-.3-4.5-.8-6.2-.6-1.8-1.3-3.2-2.1-4.2s-2-1.8-3.4-2.3c-1.4-.6-2.8-1-4.1-1.1s-3-.3-4.8-.3c-4.4,0-8,1-10.8,3.1-5.1,3.8-4,10.5-3.9,16,0,.3,0,.5-.2.7s-.5.2-.8.3c-4.9.4-13.3,1.4-13.3-5.7,0-2.2.2-3.6.7-4.4.5-.8,1.2-1.1,2.2-1.1.9,0,2.1.3,3.4.8,1.3.5,2.1.8,2.3.8.8,0,1.5-.8,1.9-2.3.5-1.5.7-3,.7-4.4s-.7-2.3-2.2-2.9c-1.5-.6-4-.9-7.8-.9-2.2,0-4.4.5-6.6,1.5-1.4.6-2.6,1.5-3.7,2.5s-2,2.4-2.7,4.2-.9,3.9-.9,6.2c0,3.7.7,6.7,2,9,.6,1,1.3,1.8,2.2,2.5.9.7,1.7,1.2,2.5,1.6,1.8.8,4.2,1.2,7.3,1.2s27.8.6,29.6-.1c3.7-.3,6.8-1.5,9.2-3.6,2.7-2.4,4.1-6,4.1-10.9h0Zm-16.9-4.7c.2-1.2.5-1.9.7-2.1.3-.2.6-.4,1-.4s.7.2,1,.6c.2.3.3.7.5,1.2.1.5.2,1.2.3,2.2s.1,2.3.1,4-.1,3.2-.3,4.3c-.2,1.2-.4,1.8-.7,2.1-.2.2-.6.3-1,.3s-.7-.1-1-.3c-.2-.2-.5-.9-.7-2.1-.2-1.2-.3-2.8-.3-4.9s.2-3.7.4-4.9h0Z"/>
    <path class="b" d="m86.8,56.3v14.8c0,.3-.9.6-2.7.8-1.8.2-3.7.3-5.6.3s-3.2-.1-3.7-.3c-.6-.2-.8-.5-.8-.9v-15.2c0-1.4-.1-2.4-.2-2.8s-.2-.8-.3-1.2c-.2-.6-.6-.9-1.2-.9-.9,0-1.3.4-1.3,1.3v18.9c0,.3-.9.6-2.7.8s-3.7.3-5.6.3-3.2-.1-3.8-.3c-.6-.2-.9-.5-.9-.9v-23.6c0-.7.9-1.3,2.8-2,1.8-.7,3.8-1,5.8-1s3.2.6,3.5,1.8l.4,2.1h.3c.9-1.9,2.5-3.2,4.8-3.9.9-.3,1.9-.4,3.1-.4,3.2,0,5.4,1,6.6,2.9,1,1.9,1.5,5.1,1.5,9.4h0Z"/>
    <path class="b" d="m97.3,72.3c-1.2,0-2.3-.2-3.3-.5s-1.9-.8-2.5-1.3c-.7-.5-1.2-1.2-1.7-2.1s-.8-1.7-1.1-2.5c-.3-.8-.4-1.8-.6-2.9-.2-1.7-.3-3.6-.3-5.8,0-4.5.8-7.8,2.4-10.1s3.9-3.5,6.7-3.5,5,.7,6.3,2.1c.3.3.5.7.7,1.2h.4l-.6-3.3v-6c0-.7.9-1.4,2.7-2.1,1.8-.7,3.7-1,5.8-1s3.6.4,4.2,1.2c.2.3.3.6.3,1v34.1c0,.3-.9.6-2.7.8-1.8.2-3.5.3-5.1.3s-2.7-.1-3.2-.2-.8-.2-.9-.4-.2-.3-.2-.6l-.4-2.7h-.2c-.3,1.1-.9,2.1-1.7,2.8-1.1,1-2.7,1.5-5,1.5h0Zm5.4-7.1c.5,0,.9-.3,1.2-1v-12.7c0-.3-.2-.6-.5-.7-.3-.2-.6-.3-.9-.3-1.1,0-1.6,2.5-1.6,7.5,0,2.7.2,4.5.5,5.6.2,1.1.7,1.7,1.3,1.6h0Z"/>
    <path class="b" d="m130.9,60.9c0,2.1,1,3.1,3,3.1,1.1,0,2.7-.4,4.5-1.2,1.9-.8,2.8-1.2,2.9-1.2.6,0,1.4.9,2.4,2.7,1,1.8,1.5,3.2,1.5,4,0,1.2-1.3,2.2-3.8,2.8s-5.1,1-7.5,1-4.5-.2-6.1-.6c-1.7-.4-3-.9-4-1.5s-1.9-1.3-2.7-2.2c-.8-.9-1.4-1.7-1.8-2.5s-.7-1.7-.9-2.6c-.3-1.4-.5-2.9-.5-4.4,0-5.8,1.5-9.8,4.6-12,1.5-1.1,3.2-1.9,5-2.3,1.9-.5,4-.7,6.6-.7,8.1,0,12.1,2.8,12.1,8.5,0,6-4.5,9-13.6,9l-1.7.1h0Zm-.1-7v3.2c.9,0,1.7-.4,2.3-1.1.6-.7.9-1.6.9-2.7,0-1.9-.5-2.9-1.5-2.9-1.1,0-1.7,1.2-1.7,3.5Z"/>
    <path class="b" d="m159.8,60.6c0,2.1,1,3.1,3,3.1,1.1,0,2.7-.4,4.5-1.2,1.9-.8,2.8-1.2,2.9-1.2.6,0,1.4.9,2.4,2.7s1.5,3.2,1.5,4c0,1.2-1.3,2.2-3.8,2.8s-5.1,1-7.5,1-4.5-.2-6.1-.6-3-.9-4-1.5-1.9-1.3-2.7-2.2c-.8-.9-1.4-1.7-1.8-2.5s-.7-1.7-.9-2.6c-.3-1.4-.5-2.9-.5-4.4,0-5.8,1.5-9.8,4.6-12,1.5-1.1,3.2-1.9,5-2.3,1.9-.5,4.1-.7,6.6-.7,8.1,0,12.1,2.8,12.1,8.5,0,6-4.5,9-13.6,9l-1.7.1h0Zm-.1-7v3.2c.9,0,1.7-.4,2.3-1.1.6-.7.9-1.6.9-2.7,0-1.9-.5-2.9-1.5-2.9-1.1,0-1.7,1.2-1.7,3.5Z"/>
    <path class="b" d="m183.37,59.55c.7,1.77.81,3.12.23,4.1-.58.98-1.55,1.8-3.13,2.42s-2.94.73-3.94.38c-1.09-.32-1.95-1.38-2.65-3.15s-.77-3.03-.19-4.01c.52-.85,1.62-1.61,3.2-2.24s2.81-.79,3.86-.56c1,.36,1.91,1.29,2.61,3.05h0Z"/>
</svg>