<?xml version="1.0" encoding="utf-8"?>
<!-- Generator: Adobe Illustrator 27.6.0, SVG Export Plug-In . SVG Version: 6.00 Build 0)  -->
<svg version="1.1" id="uuid-93c3f19c-2f8a-4ac4-9d52-ed7392f74bd9"
	 xmlns="http://www.w3.org/2000/svg" xmlns:xlink="http://www.w3.org/1999/xlink" x="0px" y="0px" viewBox="0 0 186.5 72.3"
	 style="enable-background:new 0 0 186.5 72.3;" xml:space="preserve" fill="#007bff">
<g id="uuid-6156ebe9-8def-4c56-9771-f0677e7b7850">
	<path d="M20.3,22.8v14c0,0.3-0.9,0.6-2.7,0.8s-3.7,0.3-5.6,0.3s-3.2-0.1-3.8-0.3s-0.9-0.5-0.9-0.9V13.1c0-0.6,0.9-1.3,2.7-2
		s3.7-1.1,5.8-1.1s3.3,0.6,3.5,1.7l0.5,2.2h0.3c0.5-1.2,1.5-2.2,3.2-3.1s3.4-1.3,5.1-1.3s2.9,0.3,3.6,0.8s1,1.2,1,2.1
		s-0.1,1.9-0.2,3.2c-0.1,1.3-0.4,2.7-0.9,4.3s-1.1,2.3-1.9,2.3c-0.3,0-1.3-0.2-3-0.7s-3.1-0.7-4.2-0.7S21,21,20.7,21.3
		S20.3,22.2,20.3,22.8L20.3,22.8L20.3,22.8z"/>
	<path d="M47.2,13.5v23.7c0,0.3-0.9,0.6-2.8,0.8s-3.7,0.3-5.7,0.3S35.5,38.2,35,38c-0.6-0.2-0.8-0.5-0.8-0.9V14.3
		c0-0.7,0.9-1.4,2.7-2.1s3.8-1,5.9-1C45.8,11.2,47.3,12,47.2,13.5L47.2,13.5L47.2,13.5z M45.9,4.7c0,1.9-0.4,3.2-1.3,3.9
		c-0.9,0.7-2.1,1.1-3.8,1.1s-3-0.4-3.8-1.1c-0.9-0.7-1.3-2-1.3-3.9s0.4-3.1,1.3-3.8C37.8,0.3,39.1,0,40.8,0s2.9,0.3,3.8,0.9
		C45.4,1.6,45.9,2.8,45.9,4.7L45.9,4.7z"/>
	<path d="M105.4,23.4c0-2.4-0.3-4.5-0.8-6.2s-1.2-3.1-2.1-4.1s-2-1.8-3.4-2.4c-1.4-0.6-2.8-0.9-4.1-1.1s-3-0.3-4.8-0.3
		c-4.4,0-8,1-10.8,3.1c-5.1,3.8-4,10.5-3.9,16c0,0.3,0,0.5-0.2,0.7s-0.5,0.2-0.8,0.3c-4.9,0.4-13.3,1.4-13.3-5.7
		c0-2.2,0.2-3.6,0.7-4.4s1.2-1.1,2.2-1.1c0.9,0,2.1,0.3,3.4,0.8s2.1,0.8,2.3,0.8c0.8,0,1.4-0.8,1.9-2.3c0.5-1.6,0.7-3,0.7-4.4
		s-0.7-2.4-2.2-2.9c-1.5-0.6-4-0.9-7.8-0.9c-2.2,0-4.4,0.5-6.6,1.5c-1.4,0.6-2.6,1.5-3.7,2.4s-2,2.4-2.7,4.2
		c-0.7,1.8-1.1,3.9-1.1,6.2c0,3.7,0.7,6.7,2,9c0.6,1,1.3,1.8,2.2,2.5s1.7,1.2,2.5,1.6c1.8,0.8,4.3,1.2,7.3,1.2
		c3,0,27.8,0.6,29.6-0.1c3.7-0.3,6.8-1.5,9.2-3.6C104,31.9,105.4,28.3,105.4,23.4L105.4,23.4L105.4,23.4z M88.5,18.8
		c0.2-1.2,0.5-1.9,0.7-2.1s0.6-0.4,1-0.4s0.7,0.2,1,0.6c0.2,0.3,0.3,0.7,0.5,1.2c0.1,0.5,0.2,1.2,0.3,2.2s0.1,2.3,0.1,4
		s-0.1,3.2-0.3,4.3s-0.4,1.8-0.7,2.1s-0.6,0.3-1,0.3s-0.7-0.1-1-0.3c-0.2-0.2-0.5-0.9-0.7-2.1c-0.2-1.1-0.3-2.8-0.3-4.9
		S88.3,19.9,88.5,18.8L88.5,18.8L88.5,18.8z"/>
	<path d="M56.9,57.4c0-2.4-0.3-4.5-0.8-6.2C55.5,49.4,54.8,48,54,47s-2-1.8-3.4-2.3c-1.4-0.6-2.8-1-4.1-1.1s-3-0.3-4.8-0.3
		c-4.4,0-8,1-10.8,3.1c-5.1,3.8-4,10.5-3.9,16c0,0.3,0,0.5-0.2,0.7s-0.5,0.2-0.8,0.3c-4.9,0.4-13.3,1.4-13.3-5.7
		c0-2.2,0.2-3.6,0.7-4.4c0.5-0.8,1.2-1.1,2.2-1.1c0.9,0,2.1,0.3,3.4,0.8c1.3,0.5,2.1,0.8,2.3,0.8c0.8,0,1.5-0.8,1.9-2.3
		c0.5-1.5,0.7-3,0.7-4.4s-0.7-2.3-2.2-2.9c-1.5-0.6-4-0.9-7.8-0.9c-2.2,0-4.4,0.5-6.6,1.5c-1.4,0.6-2.6,1.5-3.7,2.5s-2,2.4-2.7,4.2
		S0,55.4,0,57.7c0,3.7,0.7,6.7,2,9c0.6,1,1.3,1.8,2.2,2.5s1.7,1.2,2.5,1.6C8.5,71.6,10.9,72,14,72s27.8,0.6,29.6-0.1
		c3.7-0.3,6.8-1.5,9.2-3.6C55.5,65.9,56.9,62.3,56.9,57.4L56.9,57.4L56.9,57.4z M40,52.7c0.2-1.2,0.5-1.9,0.7-2.1
		c0.3-0.2,0.6-0.4,1-0.4s0.7,0.2,1,0.6c0.2,0.3,0.3,0.7,0.5,1.2c0.1,0.5,0.2,1.2,0.3,2.2s0.1,2.3,0.1,4s-0.1,3.2-0.3,4.3
		c-0.2,1.2-0.4,1.8-0.7,2.1c-0.2,0.2-0.6,0.3-1,0.3s-0.7-0.1-1-0.3c-0.2-0.2-0.5-0.9-0.7-2.1c-0.2-1.2-0.3-2.8-0.3-4.9
		S39.8,53.9,40,52.7L40,52.7L40,52.7z"/>
	<path d="M86.8,56.3v14.8c0,0.3-0.9,0.6-2.7,0.8c-1.8,0.2-3.7,0.3-5.6,0.3s-3.2-0.1-3.7-0.3C74.2,71.7,74,71.4,74,71V55.8
		c0-1.4-0.1-2.4-0.2-2.8s-0.2-0.8-0.3-1.2c-0.2-0.6-0.6-0.9-1.2-0.9c-0.9,0-1.3,0.4-1.3,1.3v18.9c0,0.3-0.9,0.6-2.7,0.8
		s-3.7,0.3-5.6,0.3s-3.2-0.1-3.8-0.3C58.3,71.7,58,71.4,58,71V47.4c0-0.7,0.9-1.3,2.8-2c1.8-0.7,3.8-1,5.8-1s3.2,0.6,3.5,1.8
		l0.4,2.1h0.3c0.9-1.9,2.5-3.2,4.8-3.9c0.9-0.3,1.9-0.4,3.1-0.4c3.2,0,5.4,1,6.6,2.9C86.3,48.8,86.8,52,86.8,56.3L86.8,56.3
		L86.8,56.3z"/>
	<path d="M97.3,72.3c-1.2,0-2.3-0.2-3.3-0.5s-1.9-0.8-2.5-1.3c-0.7-0.5-1.2-1.2-1.7-2.1s-0.8-1.7-1.1-2.5c-0.3-0.8-0.4-1.8-0.6-2.9
		c-0.2-1.7-0.3-3.6-0.3-5.8c0-4.5,0.8-7.8,2.4-10.1s3.9-3.5,6.7-3.5s5,0.7,6.3,2.1c0.3,0.3,0.5,0.7,0.7,1.2h0.4l-0.6-3.3v-6
		c0-0.7,0.9-1.4,2.7-2.1c1.8-0.7,3.7-1,5.8-1s3.6,0.4,4.2,1.2c0.2,0.3,0.3,0.6,0.3,1v34.1c0,0.3-0.9,0.6-2.7,0.8
		c-1.8,0.2-3.5,0.3-5.1,0.3s-2.7-0.1-3.2-0.2s-0.8-0.2-0.9-0.4s-0.2-0.3-0.2-0.6l-0.4-2.7H104c-0.3,1.1-0.9,2.1-1.7,2.8
		C101.2,71.8,99.6,72.3,97.3,72.3L97.3,72.3z M102.7,65.2c0.5,0,0.9-0.3,1.2-1V51.5c0-0.3-0.2-0.6-0.5-0.7c-0.3-0.2-0.6-0.3-0.9-0.3
		c-1.1,0-1.6,2.5-1.6,7.5c0,2.7,0.2,4.5,0.5,5.6C101.6,64.7,102.1,65.3,102.7,65.2L102.7,65.2L102.7,65.2z"/>
	<path d="M130.9,60.9c0,2.1,1,3.1,3,3.1c1.1,0,2.7-0.4,4.5-1.2c1.9-0.8,2.8-1.2,2.9-1.2c0.6,0,1.4,0.9,2.4,2.7c1,1.8,1.5,3.2,1.5,4
		c0,1.2-1.3,2.2-3.8,2.8s-5.1,1-7.5,1s-4.5-0.2-6.1-0.6c-1.7-0.4-3-0.9-4-1.5s-1.9-1.3-2.7-2.2c-0.8-0.9-1.4-1.7-1.8-2.5
		s-0.7-1.7-0.9-2.6c-0.3-1.4-0.5-2.9-0.5-4.4c0-5.8,1.5-9.8,4.6-12c1.5-1.1,3.2-1.9,5-2.3c1.9-0.5,4-0.7,6.6-0.7
		c8.1,0,12.1,2.8,12.1,8.5c0,6-4.5,9-13.6,9L130.9,60.9L130.9,60.9z M130.8,53.9v3.2c0.9,0,1.7-0.4,2.3-1.1c0.6-0.7,0.9-1.6,0.9-2.7
		c0-1.9-0.5-2.9-1.5-2.9C131.4,50.4,130.8,51.6,130.8,53.9z"/>
	<path d="M159.8,60.6c0,2.1,1,3.1,3,3.1c1.1,0,2.7-0.4,4.5-1.2c1.9-0.8,2.8-1.2,2.9-1.2c0.6,0,1.4,0.9,2.4,2.7c1,1.8,1.5,3.2,1.5,4
		c0,1.2-1.3,2.2-3.8,2.8s-5.1,1-7.5,1s-4.5-0.2-6.1-0.6s-3-0.9-4-1.5s-1.9-1.3-2.7-2.2c-0.8-0.9-1.4-1.7-1.8-2.5s-0.7-1.7-0.9-2.6
		c-0.3-1.4-0.5-2.9-0.5-4.4c0-5.8,1.5-9.8,4.6-12c1.5-1.1,3.2-1.9,5-2.3c1.9-0.5,4.1-0.7,6.6-0.7c8.1,0,12.1,2.8,12.1,8.5
		c0,6-4.5,9-13.6,9L159.8,60.6L159.8,60.6z M159.7,53.6v3.2c0.9,0,1.7-0.4,2.3-1.1c0.6-0.7,0.9-1.6,0.9-2.7c0-1.9-0.5-2.9-1.5-2.9
		C160.3,50.1,159.7,51.3,159.7,53.6z"/>
	<path d="M185,60.1c0.6,1.8,0.7,3.1,0.1,4.1s-1.6,1.8-3.2,2.3s-2.8,0.7-3.9,0.3c-1.1-0.3-1.9-1.4-2.6-3.2c-0.6-1.8-0.7-3-0.1-4
		c0.6-0.9,1.7-1.6,3.3-2.1c1.6-0.6,2.8-0.7,3.9-0.5C183.5,57.2,184.4,58.3,185,60.1L185,60.1L185,60.1z"/>
</g>
</svg>
