<?xml version="1.0" encoding="UTF-8"?><svg id="uuid-0ae3f20f-571e-4653-816d-c2e892a805d1" xmlns="http://www.w3.org/2000/svg" viewBox="0 0 196.16 74.53"><path d="m13.44,21.93v14.02c0,.35-.9.63-2.71.84-1.81.21-3.68.31-5.62.31s-3.19-.09-3.77-.26c-.58-.18-.86-.47-.86-.89V12.28c0-.61.89-1.26,2.66-1.97,1.78-.7,3.71-1.06,5.81-1.06s3.27.58,3.53,1.73l.48,2.21h.34c.45-1.22,1.52-2.25,3.22-3.1,1.7-.85,3.39-1.27,5.09-1.27s2.89.27,3.58.82c.69.54,1.03,1.24,1.03,2.09s-.06,1.93-.19,3.24c-.13,1.31-.44,2.74-.94,4.27s-1.14,2.3-1.94,2.3c-.32,0-1.33-.24-3.02-.72-1.7-.48-3.1-.72-4.2-.72s-1.79.16-2.06.48c-.27.32-.41.77-.41,1.34Z"/><path d="m35.52,0c2.11,0,3.77.31,4.97.94,1.2.62,1.8,1.75,1.8,3.38,0,2.88-2.24,4.32-6.72,4.32s-6.72-1.44-6.72-4.32,2.22-4.32,6.67-4.32Zm6.53,12.62v23.66c0,.35-.92.63-2.76.84-1.84.21-3.73.31-5.66.31s-3.18-.09-3.74-.26c-.56-.18-.84-.47-.84-.89V13.49c0-.7.9-1.4,2.71-2.09,1.81-.69,3.78-1.03,5.93-1.03,2.91,0,4.37.75,4.37,2.26Z"/><path d="m101.81,22.55c0-2.4-.27-4.47-.82-6.22-.54-1.74-1.24-3.11-2.09-4.1-.85-.99-1.97-1.78-3.36-2.35-1.39-.58-2.76-.95-4.1-1.13-1.34-.18-2.96-.26-4.85-.26-4.42,0-8.01,1.02-10.8,3.07-5.13,3.78-4,10.46-3.91,16.04,0,.26,0,.54-.17.73-.18.21-.48.24-.75.26-4.86.4-13.32,1.43-13.32-5.73,0-2.16.25-3.62.74-4.37.5-.75,1.22-1.13,2.16-1.13s2.06.27,3.36.82c1.3.54,2.07.82,2.33.82.8,0,1.45-.78,1.94-2.33.5-1.55.74-3.02.74-4.39s-.73-2.35-2.18-2.93c-1.46-.58-4.04-.86-7.75-.86-2.21,0-4.42.51-6.62,1.54-1.38.64-2.59,1.46-3.65,2.45-1.06.99-1.95,2.39-2.69,4.2-.74,1.81-1.1,3.86-1.1,6.17,0,3.71.67,6.72,2.02,9.02.58.96,1.3,1.79,2.18,2.5.88.7,1.7,1.23,2.47,1.58,1.82.83,4.26,1.25,7.32,1.25s27.8.61,29.61-.08c3.74-.3,6.8-1.49,9.15-3.59,2.75-2.45,4.13-6.1,4.13-10.97Zm-16.9-4.63c.22-1.17.46-1.87.72-2.11.26-.24.58-.36.98-.36s.74.21,1.03.62c.19.29.34.69.46,1.2.11.51.21,1.24.29,2.18.08.94.12,2.29.12,4.03s-.1,3.19-.31,4.34c-.21,1.15-.43,1.84-.67,2.06-.24.22-.56.34-.96.34s-.72-.11-.96-.34c-.24-.22-.47-.91-.7-2.06-.22-1.15-.34-2.8-.34-4.94s.11-3.8.34-4.97Z"/><path d="m56.88,59.64c0-2.4-.27-4.47-.82-6.22-.54-1.74-1.24-3.11-2.09-4.1-.85-.99-1.97-1.78-3.36-2.35-1.39-.58-2.76-.95-4.1-1.13-1.34-.18-2.96-.26-4.85-.26-4.42,0-8.01,1.02-10.8,3.07-5.13,3.78-4,10.46-3.91,16.04,0,.26,0,.54-.17.73-.18.21-.48.24-.75.26-4.86.4-13.32,1.43-13.32-5.73,0-2.16.25-3.62.74-4.37.5-.75,1.22-1.13,2.16-1.13s2.06.27,3.36.82c1.3.54,2.07.82,2.33.82.8,0,1.45-.78,1.94-2.33.5-1.55.74-3.02.74-4.39s-.73-2.35-2.18-2.93c-1.46-.58-4.04-.86-7.75-.86-2.21,0-4.42.51-6.62,1.54-1.38.64-2.59,1.46-3.65,2.45-1.06.99-1.95,2.39-2.69,4.2-.74,1.81-1.1,3.86-1.1,6.17,0,3.71.67,6.72,2.02,9.02.58.96,1.3,1.79,2.18,2.5.88.7,1.7,1.23,2.47,1.58,1.82.83,4.26,1.25,7.32,1.25s27.8.61,29.61-.08c3.74-.3,6.8-1.49,9.15-3.59,2.75-2.45,4.13-6.1,4.13-10.97Zm-16.9-4.63c.22-1.17.46-1.87.72-2.11.26-.24.58-.36.98-.36s.74.21,1.03.62c.19.29.34.69.46,1.2.11.51.21,1.24.29,2.18.08.94.12,2.29.12,4.03s-.1,3.19-.31,4.34c-.21,1.15-.43,1.84-.67,2.06-.24.22-.56.34-.96.34s-.72-.11-.96-.34c-.24-.22-.47-.91-.7-2.06-.22-1.15-.34-2.8-.34-4.94s.11-3.8.34-4.97Z"/><path d="m88.38,58.59v14.78c0,.35-.91.63-2.74.84-1.82.21-3.7.31-5.64.31s-3.18-.09-3.74-.26c-.56-.18-.84-.47-.84-.89v-15.26c0-1.44-.06-2.38-.17-2.83-.11-.45-.22-.85-.31-1.2-.22-.61-.62-.91-1.2-.91-.9,0-1.34.43-1.34,1.3v18.91c0,.35-.9.63-2.71.84-1.81.21-3.68.31-5.62.31s-3.19-.09-3.77-.26c-.58-.18-.86-.47-.86-.89v-23.66c0-.67.92-1.34,2.76-2.02,1.84-.67,3.78-1.01,5.83-1.01s3.2.59,3.46,1.78l.43,2.11h.34c.93-1.86,2.53-3.15,4.8-3.89.93-.29,1.95-.43,3.07-.43,3.23,0,5.42.97,6.55,2.9,1.14,1.94,1.7,5.08,1.7,9.43Z"/><path d="m100.43,74.53c-1.18,0-2.29-.18-3.31-.53-1.02-.35-1.86-.78-2.52-1.3-.66-.51-1.22-1.2-1.7-2.06-.48-.86-.85-1.69-1.1-2.47-.26-.78-.45-1.75-.58-2.9-.19-1.7-.29-3.63-.29-5.81,0-4.45.82-7.83,2.45-10.15,1.63-2.32,3.87-3.48,6.72-3.48s5.02.69,6.34,2.06c.29.32.51.7.67,1.15h.38l-.58-3.31v-6c0-.7.9-1.39,2.69-2.06,1.79-.67,3.73-1.01,5.81-1.01s3.57.42,4.18,1.25c.22.32.34.64.34.96v34.08c0,.35-.89.63-2.66.84-1.78.21-3.49.31-5.14.31s-2.7-.06-3.17-.17c-.46-.11-.75-.23-.86-.36-.11-.13-.18-.34-.22-.62l-.38-2.74h-.38c-.29,1.12-.86,2.06-1.73,2.83-1.09.99-2.74,1.49-4.94,1.49Zm5.38-7.01c.51,0,.9-.32,1.15-.96v-12.82c0-.32-.17-.57-.5-.74-.34-.18-.63-.26-.89-.26-1.09,0-1.63,2.5-1.63,7.49,0,2.66.15,4.54.46,5.64.3,1.1.78,1.66,1.42,1.66Z"/><path d="m135.57,63.2c0,2.08.99,3.12,2.98,3.12,1.15,0,2.66-.39,4.51-1.18,1.86-.78,2.83-1.18,2.93-1.18.61,0,1.41.91,2.4,2.74.99,1.82,1.49,3.17,1.49,4.03,0,1.25-1.28,2.19-3.84,2.83s-5.06.96-7.51.96-4.5-.19-6.14-.58c-1.65-.38-2.99-.87-4.03-1.46-1.04-.59-1.95-1.32-2.74-2.18-.78-.86-1.37-1.69-1.75-2.47-.38-.78-.69-1.66-.91-2.62-.32-1.41-.48-2.86-.48-4.37,0-5.82,1.52-9.84,4.56-12.05,1.5-1.12,3.18-1.9,5.04-2.35,1.86-.45,4.05-.67,6.58-.67,8.1,0,12.14,2.82,12.14,8.45,0,5.98-4.54,8.98-13.63,8.98h-1.58Zm-.1-7.01v3.17c.93,0,1.69-.37,2.28-1.1.59-.74.89-1.63.89-2.69,0-1.92-.5-2.88-1.49-2.88-1.12,0-1.68,1.17-1.68,3.5Z"/><path d="m166.45,63.2c0,2.08.99,3.12,2.98,3.12,1.15,0,2.66-.39,4.51-1.18,1.86-.78,2.83-1.18,2.93-1.18.61,0,1.41.91,2.4,2.74.99,1.82,1.49,3.17,1.49,4.03,0,1.25-1.28,2.19-3.84,2.83-2.56.64-5.06.96-7.51.96s-4.5-.19-6.14-.58c-1.65-.38-2.99-.87-4.03-1.46-1.04-.59-1.95-1.32-2.74-2.18-.78-.86-1.37-1.69-1.75-2.47-.38-.78-.69-1.66-.91-2.62-.32-1.41-.48-2.86-.48-4.37,0-5.82,1.52-9.84,4.56-12.05,1.5-1.12,3.18-1.9,5.04-2.35,1.86-.45,4.05-.67,6.58-.67,8.1,0,12.14,2.82,12.14,8.45,0,5.98-4.54,8.98-13.63,8.98h-1.58Zm-.1-7.01v3.17c.93,0,1.69-.37,2.28-1.1.59-.74.89-1.63.89-2.69,0-1.92-.5-2.88-1.49-2.88-1.12,0-1.68,1.17-1.68,3.5Z"/><path d="m196.16,69.09c0,1.89-.43,3.18-1.3,3.89-.86.7-2.14,1.06-3.82,1.06s-2.95-.35-3.82-1.06c-.86-.7-1.3-2-1.3-3.89s.44-3.14,1.32-3.77c.88-.62,2.15-.94,3.82-.94s2.93.31,3.79.94c.86.62,1.3,1.88,1.3,3.77Z"/></svg>