<svg xmlns:xlink="http://www.w3.org/1999/xlink" xmlns="http://www.w3.org/2000/svg" class="css-ze2te4 css-qd6ojx" viewBox="0 0 77.30814179976626 88.35216205687573" width="110"  height="110" ><g transform="translate(0, 0) scale(2.7610050642773665)" class="css-1mun45u" fill="#111111"><g xmlns="http://www.w3.org/2000/svg" fill="#111111"><g fill="#111111"><g fill="#111111"><path d="M12.203,19.354c-0.983,0-1.951,0.647-1.951,1.919c0,0.968,0.823,1.887,1.951,1.887c0.287,0,0.567-0.072,0.847-0.144     l-0.911-0.84c-0.424-0.512,0.248-1.239,0.783-0.768l0.904,0.903c0.199-0.279,0.287-0.623,0.287-1.039     C14.113,20.002,13.114,19.354,12.203,19.354z" fill="#111111"></path><path d="M23,15H1c-0.55,0-1,0.45-1,1v10c0,0.55,0.45,1,1,1h22c0.551,0,1-0.45,1-1V16C24,15.45,23.551,15,23,15z M4.252,23.6     c-0.264-0.215-0.256-0.566-0.111-0.783c0.207-0.207,0.439-0.279,0.711-0.056c0.656,0.448,2.343,0.784,2.463-0.353     c-0.104-1.183-3.43-0.471-3.182-2.742c0.184-1.551,2.526-1.83,3.629-0.982c0.544,0.439-0.031,1.135-0.512,0.783     c-0.591-0.376-1.935-0.552-2.103,0.279c-0.216,1.312,3.263,0.561,3.206,2.687C8.298,24.464,5.356,24.512,4.252,23.6z      M14.721,23.24c0.527,0.48-0.16,1.264-0.696,0.76l-0.271-0.216c-0.416,0.288-0.903,0.424-1.551,0.424     c-1.407,0-3.015-0.968-3.015-2.935s1.599-2.967,3.015-2.967c1.486,0,2.942,1,2.942,2.967c0,0.76-0.192,1.319-0.551,1.814     L14.721,23.24z M19.475,24h-2.646c-0.281,0-0.504-0.199-0.504-0.488v-4.564c0-0.264,0.223-0.488,0.504-0.488     c0.256,0,0.471,0.225,0.471,0.488v4.006h2.176C20.258,22.953,20.273,24,19.475,24z" fill="#111111"></path></g><path d="M27,7.586L20.414,1C19.836,0.42,18.82,0,18,0H7C5.346,0,4,1.346,4,3v10c0,0.553,0.447,1,1,1s1-0.447,1-1V3    c0-0.551,0.448-1,1-1h9c1.105,0,2,0.896,2,2v3.75C18,8.988,19.014,10,20.25,10H24c1.105,0,2,0.896,2,2v17c0,0.551-0.447,1-1,1H7    c-0.552,0-1-0.449-1-1c0-0.553-0.447-1-1-1s-1,0.447-1,1c0,1.654,1.346,3,3,3h18c1.654,0,3-1.346,3-3V10    C28,9.181,27.58,8.165,27,7.586z" fill="#111111"></path></g></g></g></svg>